<?xml version="1.0" encoding="UTF-8"?><svg id="uuid-f8321187-9ac6-41e5-8ad6-1d6a11d18c73" xmlns="http://www.w3.org/2000/svg" width="35" height="35" xmlns:xlink="http://www.w3.org/1999/xlink" viewBox="0 0 35 35"><defs><clipPath id="uuid-022339dd-2884-47a4-8727-37182569432b"><rect x="4" y="4" width="27" height="27" style="fill:none; stroke-width:0px;"/></clipPath></defs><g style="clip-path:url(#uuid-022339dd-2884-47a4-8727-37182569432b);"><path d="m17.5,31c-7.5,0-13.5-6.1-13.5-13.5S10.1,4,17.5,4s13.5,6.1,13.5,13.5-6,13.5-13.5,13.5m0-25.5c-6.6,0-12,5.4-12,12s5.4,12,12,12,12-5.4,12-12-5.4-12-12-12" style="fill:#262633; stroke-width:0px;"/><ellipse cx="17.5" cy="17.5" rx="13" ry="13.4" style="fill:#262633; stroke-width:0px;"/><path d="m15.4,25.4c0,.1.1.2.2.2h2.9c.1,0,.2-.1.2-.2v-7.9h2.1c.1,0,.2,0,.2-.2l.2-2.4c0-.1,0-.2-.2-.2h-2.3v-1.7c0-.4.3-.7.7-.7h1.6c.1,0,.2,0,.2-.2v-2.4c0-.1-.1-.2-.2-.2h-2.8c-1.6,0-2.9,1.3-2.9,2.9v2.3h-1.5c-.1,0-.2.1-.2.2v2.4c0,.1.1.2.2.2h1.5v7.9Z" style="fill:#fff; fill-rule:evenodd; stroke-width:0px;"/></g></svg>