<?xml version="1.0" encoding="UTF-8"?><svg id="uuid-bda67f07-83aa-4277-8598-cbd2d105d213" xmlns="http://www.w3.org/2000/svg" width="35" height="35" xmlns:xlink="http://www.w3.org/1999/xlink" viewBox="0 0 35 35"><defs><clipPath id="uuid-27b69e08-351f-435e-a216-fb34bf42b656"><rect x="4" y="4" width="27" height="26.9" style="fill:none; stroke-width:0px;"/></clipPath></defs><ellipse cx="17.5" cy="17.6" rx="13.5" ry="13.4" style="fill:#262633; stroke-width:0px;"/><g style="isolation:isolate;"><g style="clip-path:url(#uuid-27b69e08-351f-435e-a216-fb34bf42b656);"><path d="m17.6,13.3c-2.3,0-4.2,1.9-4.2,4.2s1.9,4.2,4.2,4.2,4.2-1.9,4.2-4.2-1.9-4.2-4.2-4.2Zm0,6.9c-1.5,0-2.7-1.2-2.7-2.7s1.2-2.7,2.7-2.7,2.7,1.2,2.7,2.7-1.2,2.7-2.7,2.7Z" style="fill:#fff; stroke-width:0px;"/><path d="m21,8.9h-6.7c-2.8,0-5.1,2.3-5.1,5.1v6.7c0,2.8,2.3,5.1,5.1,5.1h6.7c2.8,0,5.1-2.3,5.1-5.1v-6.7c0-2.8-2.3-5.1-5.1-5.1Zm3.5,11.8c0,1.9-1.6,3.5-3.5,3.5h-6.7c-1.9,0-3.5-1.6-3.5-3.5v-6.7c0-1.9,1.6-3.5,3.5-3.5h6.7c1.9,0,3.5,1.6,3.5,3.5v6.7Z" style="fill:#fff; stroke-width:0px;"/><path d="m22,12c-.5,0-1,.4-1,1s.4,1,1,1,1-.4,1-1-.4-1-1-1Z" style="fill:#fff; stroke-width:0px;"/><path d="m17.5,4c-7.4,0-13.5,6-13.5,13.5s6.1,13.5,13.5,13.5,13.5-6,13.5-13.5S24.9,4,17.5,4Zm0,25.7c-6.8,0-12.2-5.5-12.2-12.2s5.5-12.2,12.2-12.2,12.2,5.5,12.2,12.2-5.5,12.2-12.2,12.2Z" style="fill:#262633; stroke-width:0px;"/></g></g></svg>