<?xml version="1.0" encoding="UTF-8"?><svg id="uuid-fdad902c-1c1e-4dae-9690-59ee58547c96" xmlns="http://www.w3.org/2000/svg" width="35" height="35" viewBox="0 0 35 35"><path d="m17.5,31c-7.5,0-13.5-6.1-13.5-13.5s6.1-13.5,13.5-13.5,13.5,6.1,13.5,13.5-6,13.5-13.5,13.5m0-25.5c-6.6,0-12,5.4-12,12s5.4,12,12,12,12-5.4,12-12-5.4-12-12-12" style="fill:#262633; stroke-width:0px;"/><circle cx="17.5" cy="17.5" r="13.4" style="fill:#262633; stroke-width:0px;"/><path d="m14.8,23.9c.3,0,0,0,0,0,0,0,0,0,0,0" style="fill:#010101; fill-rule:evenodd; stroke-width:0px;"/><path d="m20.3,11s0,0,0,0h0Z" style="fill:#010101; fill-rule:evenodd; stroke-width:0px;"/><rect x="4" y="4" width="27" height="27" style="fill:none; stroke-width:0px;"/><rect x="11.7" y="14.6" width="2.9" height="8.9" style="fill:#fff; stroke-width:0px;"/><path d="m22.5,14.7s0,0,0,0c0,0,0,0-.1,0-.2,0-.3,0-.5,0-1.7,0-2.8,1.2-3.1,1.7v-1.7h-2.9v8.9h2.9v-4.9s2.2-3,3.1-.8v5.7h2.9v-6c0-1.3-.9-2.5-2.2-2.8Z" style="fill:#fff; stroke-width:0px;"/><circle cx="13.1" cy="11.9" r="1.4" style="fill:#fff; stroke-width:0px;"/></svg>