<?xml version="1.0" encoding="UTF-8"?><svg id="uuid-d0088b20-227c-4f61-9abe-7cb660613ffe" xmlns="http://www.w3.org/2000/svg" width="274" height="38.9" viewBox="0 0 274 38.9"><path d="m168.3,0h.5c.1,0,.3.1.3.3v38.3c0,.1-.1.2-.2.2h-.6c-.1,0-.2-.1-.2-.2V.3C168,.1,168.1,0,168.3,0Z" style="fill:#262633; stroke-width:0px;"/><path d="m33.2,36.5c1.2,0,2.5,0,3.8,0v-.4l-.7-.2c-.6-.2-1.1-.6-1.1-1.3,0-1.4,0-3.2,0-5.2V9c0-1.7,0-3.3,0-4.4,0-.7.4-1.2,1-1.4l.9-.3v-.4c-1,0-1.9,0-2.6,0-1.2,0-2.4,0-3.9,0l-11.9,28.5L6.7,2.5c-1.4,0-2.8,0-4.1,0s-1.6,0-2.6,0v.4l.9.3c.6.2,1,.7,1,1.4,0,1.1,0,2.7,0,4.4v20.4c0,2,0,3.9,0,5.2,0,.7-.5,1.1-1.1,1.3l-.8.2v.4c1.1,0,2,0,2.8,0s1.6,0,2.5,0v-.4l-.6-.2c-.7-.2-1-.7-1.1-1.4,0-1.3,0-3.2,0-5.2V4.7s13.4,31.9,13.4,31.9h1.1c0-.1,13.4-32.1,13.4-32.1v2.8c0,0,0,22.1,0,22.1,0,2,0,3.8,0,5.2,0,.7-.4,1.2-1,1.4l-.6.2v.4c1.1,0,2.3,0,3.5,0m45.9-17c0,5.7-1,10-3.1,12.8-2.1,2.8-5.4,4.2-9.7,4.2s-7.8-1.5-10.1-4.6c-2.3-3.1-3.4-7.4-3.4-12.9s1-9.6,3-12.3c2.1-2.8,5.4-4.2,9.8-4.2s8,1.5,10.2,4.5c2.2,3,3.3,7.2,3.3,12.6m-.4,12.7c3.2-3.4,4.8-7.9,4.8-13.6s-1.5-9.5-4.4-12.5c-2.9-3-7-4.6-12.5-4.6s-10.1,1.7-13.2,4.9c-3.1,3.2-4.7,7.7-4.7,13.3s1.5,9.7,4.4,12.8c2.9,3.1,7.1,4.7,12.5,4.7s10.1-1.7,13.3-5.1m37.7,4.8c.6,0,1.8,0,2.7-.1v-.3c-.5,0-1.2-.1-1.9-.4-.5-.2-.6-.4-1-.6-.3-.2-.6-.5-.9-.8-.6-.6-1.2-1.4-1.8-2.4-.6-1-1.3-2.1-2-3.3-.7-1.2-4.5-7.5-4.9-8.2,0,0,0,0,0-.1,5.3-.9,9.7-3.2,9.7-8.7s-6.1-9.6-13.6-9.6h0c-.8,0-1.9,0-3.2,0-1.1,0-2.4,0-3.7,0-4.3,0-5.7.1-6,.2-.1,0-.3,0-.4,0l-.2,3.1h.4c0-.2.3-1.3.9-1.7.4-.3.8-.3,1.1-.3,1.1,0,2-.1,4.4-.2,3.1,0,4.7,0,6.4,0h.2c6,.4,9.7,2.3,9.7,8.5s-2.2,7.3-6.1,8c-1.6.3-3.4.3-5.2.4,0,0,.1,0,.1,0,.1,0,.4.2.5.3.3.2.5.4.7.7.2.2.4.6.7,1,.8,1.4,1.8,3.1,2.4,4.1.6,1,1.6,2.7,2.4,4,.9,1.5,1.3,2.2,2,3.3.5.8,1.2,1.6,1.8,2.1.3.2.6.4.9.5.3.1.6.2,1,.3.4,0,.8.2,1.3.2.5,0,1.1,0,1.8,0m17.3-7.7v-9.7h2.8c1.7,0,7.3,0,9.5,0,.7,0,1.1.5,1.3,1.1l.3,1.2h.3c0-1.2,0-2.1,0-2.8s0-1.6,0-2.8h-.3l-.3,1.2c-.2.6-.7,1-1.4,1.1-2.1,0-7.7,0-9.4,0h-2.8V3.6h16.6s.7,0,1.1.4c.4.5.4,1.5.4,1.5h.4l.5-3c-3.9,0-11.3,0-14.8,0h-6.1c-1.3,0-2.5,0-3.9,0v.4l1,.3c.6.2,1,.7,1,1.4,0,.6,0,1.3,0,2,0,.7,0,1.5,0,2.3v20.4c0,1,0,2.1,0,2.9,0,.8,0,1.6,0,2.3,0,.7-.5,1.1-1.1,1.3l-.9.3v.4c1.3,0,2.7,0,4,0h5.9c3.6,0,11.1,0,15.2.1l.2-3.1h-.4s-.3,1.3-1,1.7c-.4.2-1.1.2-1.1.2h-16.9v-.6c0-1.8,0-3.7,0-5.6" style="fill:#262633; stroke-width:0px;"/><path d="m186.2,6.4h6.4v.9h-5.4v3.2h4.9v.9h-4.9v3.9h-1V6.4Z" style="fill:#262633; stroke-width:0px;"/><path d="m196.9,6.3h.9l4.1,9h-1.1l-1.1-2.4h-4.9l-1.1,2.4h-1l4.1-9Zm2.5,5.7l-2-4.6-2.1,4.6h4.1Z" style="fill:#262633; stroke-width:0px;"/><path d="m203.7,6.4h1l3.3,4.9,3.3-4.9h1v9h-1v-7.3l-3.3,4.8h0l-3.3-4.8v7.3h-1V6.4Z" style="fill:#262633; stroke-width:0px;"/><path d="m214.9,6.4h1v9h-1V6.4Z" style="fill:#262633; stroke-width:0px;"/><path d="m218.6,6.4h1v8h5v.9h-6.1V6.4Z" style="fill:#262633; stroke-width:0px;"/><path d="m227.6,11.8l-3.7-5.4h1.2l3,4.5,3-4.5h1.2l-3.7,5.4v3.6h-1v-3.5Z" style="fill:#262633; stroke-width:0px;"/><path d="m185.8,28h0c0-2.6,1.9-4.7,4.5-4.7s2.6.6,3.5,1.4l-.7.7c-.8-.7-1.6-1.2-2.8-1.2-2,0-3.5,1.6-3.5,3.7h0c0,2.1,1.5,3.7,3.5,3.7s2-.5,2.9-1.3l.7.7c-.9.9-2,1.6-3.6,1.6-2.6,0-4.5-2-4.5-4.6Z" style="fill:#262633; stroke-width:0px;"/><path d="m195,28h0c0-2.5,1.9-4.7,4.6-4.7s4.6,2.1,4.6,4.6h0c0,2.5-1.9,4.7-4.6,4.7s-4.6-2.1-4.6-4.6Zm8.1,0h0c0-2.1-1.5-3.7-3.5-3.7s-3.5,1.6-3.5,3.7h0c0,2.1,1.5,3.7,3.5,3.7s3.5-1.6,3.5-3.7Z" style="fill:#262633; stroke-width:0px;"/><path d="m206.3,23.4h1v8h5v.9h-6.1v-9Z" style="fill:#262633; stroke-width:0px;"/><path d="m214.2,23.4h1v8h5v.9h-6.1v-9Z" style="fill:#262633; stroke-width:0px;"/><path d="m222.2,23.4h6.5v.9h-5.5v3.1h4.9v.9h-4.9v3.1h5.5v.9h-6.5v-9Z" style="fill:#262633; stroke-width:0px;"/><path d="m230.3,28h0c0-2.6,1.9-4.7,4.5-4.7s2.6.6,3.5,1.4l-.7.7c-.8-.7-1.6-1.2-2.8-1.2-2,0-3.5,1.6-3.5,3.7h0c0,2.1,1.5,3.7,3.5,3.7s2-.5,2.9-1.3l.7.7c-.9.9-2,1.6-3.6,1.6-2.6,0-4.5-2-4.5-4.6Z" style="fill:#262633; stroke-width:0px;"/><path d="m242.6,24.4h-3v-.9h7v.9h-3v8h-1v-8Z" style="fill:#262633; stroke-width:0px;"/><path d="m248.6,23.4h1v9h-1v-9Z" style="fill:#262633; stroke-width:0px;"/><path d="m251.8,28h0c0-2.5,1.9-4.7,4.6-4.7s4.6,2.1,4.6,4.6h0c0,2.5-1.9,4.7-4.6,4.7s-4.6-2.1-4.6-4.6Zm8.1,0h0c0-2.1-1.5-3.7-3.5-3.7s-3.5,1.6-3.5,3.7h0c0,2.1,1.5,3.7,3.5,3.7s3.5-1.6,3.5-3.7Z" style="fill:#262633; stroke-width:0px;"/><path d="m263.1,23.4h.9l5.7,7.2v-7.2h1v9h-.8l-5.8-7.4v7.4h-1v-9Z" style="fill:#262633; stroke-width:0px;"/></svg>