<?xml version="1.0" encoding="UTF-8"?><svg id="uuid-ffac4d0f-7564-4437-a7ec-63aa755937ef" xmlns="http://www.w3.org/2000/svg" width="35" height="35" xmlns:xlink="http://www.w3.org/1999/xlink" viewBox="0 0 35 35"><defs><clipPath id="uuid-2a03dd8a-a68e-45b8-a2df-2c2a1d84f1a8"><rect x="4" y="4" width="27" height="27" style="fill:none; stroke-width:0px;"/></clipPath></defs><g style="clip-path:url(#uuid-2a03dd8a-a68e-45b8-a2df-2c2a1d84f1a8);"><path d="m17.5,31c-7.5,0-13.5-6.1-13.5-13.5S10.1,4,17.5,4s13.5,6.1,13.5,13.5-6.1,13.5-13.5,13.5m0-25.5c-6.6,0-12,5.4-12,12s5.4,12,12,12,12-5.4,12-12-5.4-12-12-12" style="fill:#262633; stroke-width:0px;"/><ellipse cx="17.5" cy="17.5" rx="13" ry="13.4" style="fill:#262633; stroke-width:0px;"/><path d="m22.1,12h-9c-1.9,0-3.5,1.6-3.5,3.5v4.2c0,1.9,1.6,3.5,3.5,3.5h9c1.9,0,3.5-1.6,3.5-3.5v-4.2c0-1.9-1.6-3.5-3.5-3.5Zm-1.8,5.8l-4.4,2.4c-.2,0-.4,0-.4-.2v-5c0-.2.2-.4.4-.2l4.4,2.6c.2,0,.2.3,0,.5Z" style="fill:#fff; stroke-width:0px;"/></g></svg>